<?xml version="1.0" standalone="no"?>
<!DOCTYPE svg PUBLIC "-//W3C//DTD SVG 20010904//EN"
 "http://www.w3.org/TR/2001/REC-SVG-20010904/DTD/svg10.dtd">
<svg version="1.0" xmlns="http://www.w3.org/2000/svg"
 width="500.000000pt" height="500.000000pt" viewBox="0 0 500.000000 500.000000"
 preserveAspectRatio="xMidYMid meet">

<g transform="translate(0.000000,500.000000) scale(0.100000,-0.100000)"
fill="#000000" stroke="none">
<path d="M3015 4606 c-17 -7 -44 -28 -59 -47 -15 -18 -128 -233 -251 -478
-543 -1086 -652 -1276 -835 -1461 -164 -166 -343 -252 -625 -300 -139 -23
-224 -29 -615 -40 -188 -5 -327 -13 -345 -20 -46 -17 -92 -67 -105 -114 -15
-53 -1 -111 36 -156 53 -62 58 -63 409 -71 247 -5 354 -12 469 -28 199 -29
250 -52 282 -128 20 -47 17 -201 -6 -313 -25 -120 -25 -161 0 -209 58 -115
208 -129 284 -28 31 41 1580 3140 1596 3193 23 76 -18 160 -94 195 -48 22 -99
24 -141 5z"/>
<path d="M3415 3057 c-17 -8 -44 -30 -61 -49 -30 -34 -1146 -2248 -1198 -2376
-28 -69 -27 -100 5 -164 58 -114 228 -118 293 -6 13 24 94 178 179 343 232
452 341 627 482 774 97 102 172 156 296 215 220 106 434 133 1164 148 116 3
134 6 167 26 107 67 110 221 5 290 -40 27 -42 27 -286 34 -259 7 -650 40 -714
60 -55 17 -113 71 -133 123 -21 56 -16 158 15 288 36 151 25 220 -44 272 -43
34 -122 43 -170 22z"/>
</g>
</svg>
